<svg width="123" height="18" viewBox="0 0 123 18" fill="none" xmlns="http://www.w3.org/2000/svg">
<path d="M8.36 15.04L0.94 10.8V9.06L8.36 4.82L9.44 6.68L2.4 10.6V9.26L9.44 13.18L8.36 15.04ZM10.7683 17.7L19.0483 0.999999H21.4483L13.2083 17.7H10.7683ZM29.6534 15V0.999999H32.1134L37.2134 9.3L35.7734 9.28L40.9334 0.999999H43.2734V15H40.6934V9.74C40.6934 8.54 40.7201 7.46 40.7734 6.5C40.8401 5.54 40.9468 4.58667 41.0934 3.64L41.4134 4.5L37.0734 11.2H35.7534L31.5534 4.56L31.8334 3.64C31.9801 4.53333 32.0801 5.45333 32.1334 6.4C32.2001 7.33333 32.2334 8.44667 32.2334 9.74V15H29.6534ZM52.9763 15.2C51.9629 15.2 51.0363 15.0267 50.1963 14.68C49.3563 14.3333 48.6296 13.84 48.0163 13.2C47.4029 12.5467 46.9229 11.78 46.5763 10.9C46.2429 10.0067 46.0763 9.03333 46.0763 7.98C46.0763 6.96667 46.2563 6.02667 46.6163 5.16C46.9763 4.29333 47.4763 3.53333 48.1163 2.88C48.7563 2.22667 49.5029 1.72 50.3563 1.36C51.2096 0.999999 52.1363 0.819999 53.1363 0.819999C53.8163 0.819999 54.4763 0.919999 55.1163 1.12C55.7563 1.32 56.3429 1.6 56.8763 1.96C57.4096 2.30667 57.8563 2.71333 58.2163 3.18L56.5563 5C56.2096 4.64 55.8496 4.34 55.4763 4.1C55.1163 3.84667 54.7363 3.66 54.3363 3.54C53.9496 3.40667 53.5496 3.34 53.1363 3.34C52.5229 3.34 51.9429 3.45333 51.3963 3.68C50.8629 3.90667 50.3963 4.22667 49.9963 4.64C49.6096 5.05333 49.3029 5.54667 49.0763 6.12C48.8496 6.68 48.7363 7.30667 48.7363 8C48.7363 8.70667 48.8429 9.34667 49.0563 9.92C49.2829 10.4933 49.5963 10.9867 49.9963 11.4C50.4096 11.8133 50.8963 12.1333 51.4563 12.36C52.0296 12.5733 52.6563 12.68 53.3363 12.68C53.7763 12.68 54.2029 12.62 54.6163 12.5C55.0296 12.38 55.4096 12.2133 55.7563 12C56.1163 11.7733 56.4429 11.5133 56.7363 11.22L58.0163 13.28C57.6963 13.64 57.2696 13.9667 56.7363 14.26C56.2029 14.5533 55.6029 14.7867 54.9363 14.96C54.2829 15.12 53.6296 15.2 52.9763 15.2ZM115.091 15.04L114.011 13.18L121.051 9.26V10.6L114.011 6.68L115.091 4.82L122.511 9.06V10.8L115.091 15.04Z" fill="black"/>
<path d="M66.587 15V0.999999H72.207C73.2204 0.999999 74.1337 1.16667 74.947 1.5C75.7737 1.83333 76.4804 2.31333 77.067 2.94C77.667 3.56667 78.1204 4.30667 78.427 5.16C78.747 6.01333 78.907 6.96 78.907 8C78.907 9.04 78.747 9.99333 78.427 10.86C78.1204 11.7133 77.6737 12.4533 77.087 13.08C76.5004 13.6933 75.7937 14.1667 74.967 14.5C74.1404 14.8333 73.2204 15 72.207 15H66.587ZM69.187 12.98L68.987 12.6H72.107C72.7604 12.6 73.3404 12.4933 73.847 12.28C74.367 12.0667 74.807 11.76 75.167 11.36C75.527 10.96 75.8004 10.48 75.987 9.92C76.1737 9.34667 76.267 8.70667 76.267 8C76.267 7.29333 76.1737 6.66 75.987 6.1C75.8004 5.52667 75.5204 5.04 75.147 4.64C74.787 4.24 74.3537 3.93333 73.847 3.72C73.3404 3.50667 72.7604 3.4 72.107 3.4H68.927L69.187 3.06V12.98ZM86.2238 15.2C85.1171 15.2 84.1371 14.9667 83.2838 14.5C82.4438 14.0333 81.7838 13.4 81.3038 12.6C80.8371 11.7867 80.6038 10.86 80.6038 9.82C80.6038 8.99333 80.7371 8.24 81.0038 7.56C81.2704 6.88 81.6371 6.29333 82.1038 5.8C82.5838 5.29333 83.1504 4.90667 83.8038 4.64C84.4704 4.36 85.1971 4.22 85.9838 4.22C86.6771 4.22 87.3238 4.35333 87.9238 4.62C88.5238 4.88667 89.0438 5.25333 89.4838 5.72C89.9238 6.17333 90.2571 6.72 90.4838 7.36C90.7238 7.98667 90.8371 8.67333 90.8238 9.42L90.8038 10.28H82.2638L81.8038 8.6H88.7438L88.4238 8.94V8.5C88.3838 8.08667 88.2504 7.72667 88.0238 7.42C87.7971 7.1 87.5038 6.85333 87.1438 6.68C86.7971 6.49333 86.4104 6.4 85.9838 6.4C85.3304 6.4 84.7771 6.52667 84.3238 6.78C83.8838 7.03333 83.5504 7.4 83.3238 7.88C83.0971 8.34667 82.9838 8.93333 82.9838 9.64C82.9838 10.32 83.1238 10.9133 83.4038 11.42C83.6971 11.9267 84.1038 12.32 84.6238 12.6C85.1571 12.8667 85.7771 13 86.4838 13C86.9771 13 87.4304 12.92 87.8438 12.76C88.2571 12.6 88.7038 12.3133 89.1838 11.9L90.4037 13.6C90.0438 13.9333 89.6304 14.22 89.1638 14.46C88.7104 14.6867 88.2304 14.8667 87.7238 15C87.2171 15.1333 86.7171 15.2 86.2238 15.2ZM96.1872 15L91.7472 4.46H94.4272L97.4272 12.34L96.9072 12.48L100.067 4.46H102.687L98.0272 15H96.1872ZM104.626 15.22C104.146 15.22 103.773 15.08 103.506 14.8C103.253 14.52 103.126 14.1267 103.126 13.62C103.126 13.1533 103.259 12.7733 103.526 12.48C103.806 12.1733 104.173 12.02 104.626 12.02C105.106 12.02 105.473 12.16 105.726 12.44C105.993 12.7067 106.126 13.1 106.126 13.62C106.126 14.0867 105.986 14.4733 105.706 14.78C105.439 15.0733 105.079 15.22 104.626 15.22Z" fill="#DCF2F1"/>
</svg>
