<svg width="70" height="70" viewBox="0 0 70 70" fill="none" xmlns="http://www.w3.org/2000/svg">
<path d="M24.9074 65.5704C25.9028 65.142 26.6 64.1522 26.6 63V55.44C26.6 55.1642 26.6224 54.8772 26.6574 54.586C26.6378 54.5916 26.6196 54.5958 26.6 54.6C26.6 54.6 22.4 54.6 21.56 54.6C19.46 54.6 17.64 53.76 16.8 52.08C15.82 50.26 15.4 47.18 12.88 45.5C12.46 45.22 12.74 44.8 13.58 44.8C14.42 44.94 16.24 46.06 17.36 47.6C18.62 49.14 19.88 50.4 22.12 50.4C25.6018 50.4 27.468 50.225 28.5908 49.623C29.8984 47.6784 31.7086 46.2 33.6 46.2V46.165C25.6648 45.9102 20.5954 43.2726 18.235 39.2C13.104 39.2588 8.63659 39.767 6.08719 40.1898C6.00599 39.732 5.93599 39.2714 5.87579 38.808C8.39159 38.3936 12.656 37.9022 17.5588 37.8084C17.402 37.422 17.2662 37.0258 17.1514 36.6198C12.236 36.3706 7.99399 36.5652 5.68959 36.7556C5.66159 36.2908 5.62379 35.8274 5.61819 35.357C7.92679 35.168 12.054 34.979 16.8434 35.2016C16.7328 34.5016 16.6614 33.7862 16.6614 33.0414C16.6614 30.6614 17.5014 28.1414 19.0414 26.0414C18.3414 23.6614 17.3614 18.6214 19.3214 16.8014C23.1014 16.8014 25.7614 18.6214 27.0214 19.7414C29.4 18.76 32.06 18.2 35 18.2C37.94 18.2 40.6 18.76 42.84 19.74C44.1 18.62 46.76 16.8 50.54 16.8C52.64 18.76 51.52 23.8 50.82 26.04C52.36 28.14 53.2 30.52 53.06 33.04C53.06 33.7176 52.997 34.3714 52.906 35.0126C57.8046 34.7718 62.0438 34.965 64.3916 35.1554C64.3888 35.6272 64.3454 36.0878 64.3202 36.554C61.9808 36.3608 57.6352 36.162 52.6176 36.4294C52.493 36.8998 52.3418 37.3576 52.1626 37.8014C57.127 37.8658 61.4936 38.346 64.1298 38.766C64.0696 39.2308 63.9996 39.6914 63.9184 40.1478C61.2416 39.7194 56.679 39.2182 51.4878 39.193C49.1568 43.2222 44.1798 45.85 36.4 46.1566V46.2C40.04 46.2 43.4 51.66 43.4 55.44V63C43.4 64.1522 44.0972 65.142 45.0926 65.5704C57.918 61.3256 67.2 49.2296 67.2 35C67.2 17.2452 52.7562 2.79999 35 2.79999C17.2438 2.79999 2.79999 17.2452 2.79999 35C2.79999 49.2296 12.082 61.3256 24.9074 65.5704Z" fill="black"/>
</svg>
