<svg width="70" height="70" viewBox="0 0 70 70" fill="none" xmlns="http://www.w3.org/2000/svg">
<path d="M57.4 5.59998H12.6C8.73598 5.59998 5.59998 8.73598 5.59998 12.6V57.4C5.59998 61.264 8.73598 64.4 12.6 64.4H57.4C61.264 64.4 64.4 61.264 64.4 57.4V12.6C64.4 8.73598 61.264 5.59998 57.4 5.59998ZM23.8 28V54.6H15.4V28H23.8ZM15.4 20.258C15.4 18.298 17.08 16.8 19.6 16.8C22.12 16.8 23.702 18.298 23.8 20.258C23.8 22.218 22.232 23.8 19.6 23.8C17.08 23.8 15.4 22.218 15.4 20.258ZM54.6 54.6H46.2C46.2 54.6 46.2 41.636 46.2 40.6C46.2 37.8 44.8 35 41.3 34.944H41.188C37.8 34.944 36.4 37.828 36.4 40.6C36.4 41.874 36.4 54.6 36.4 54.6H28V28H36.4V31.584C36.4 31.584 39.102 28 44.534 28C50.092 28 54.6 31.822 54.6 39.564V54.6Z" fill="black"/>
</svg>
