<svg width="70" height="70" viewBox="0 0 70 70" fill="none" xmlns="http://www.w3.org/2000/svg">
<path d="M22.4 4.20001C12.3619 4.20001 4.19995 12.362 4.19995 22.4V47.6C4.19995 57.638 12.3619 65.8 22.4 65.8H47.5999C57.6379 65.8 65.7999 57.638 65.7999 47.6V22.4C65.7999 12.362 57.6379 4.20001 47.5999 4.20001H22.4ZM51.7999 15.4C53.3399 15.4 54.5999 16.66 54.5999 18.2C54.5999 19.74 53.3399 21 51.7999 21C50.2599 21 48.9999 19.74 48.9999 18.2C48.9999 16.66 50.2599 15.4 51.7999 15.4ZM34.9999 19.6C43.4979 19.6 50.3999 26.502 50.3999 35C50.3999 43.498 43.4979 50.4 34.9999 50.4C26.5019 50.4 19.5999 43.498 19.5999 35C19.5999 26.502 26.5019 19.6 34.9999 19.6ZM34.9999 22.4C28.0559 22.4 22.4 28.056 22.4 35C22.4 41.944 28.0559 47.6 34.9999 47.6C41.9439 47.6 47.5999 41.944 47.5999 35C47.5999 28.056 41.9439 22.4 34.9999 22.4Z" fill="black"/>
</svg>
