<svg width="26" height="21" viewBox="0 0 26 21" fill="none" xmlns="http://www.w3.org/2000/svg">
<path fill-rule="evenodd" clip-rule="evenodd" d="M0 19.8333C0 19.5239 0.124513 19.2272 0.346147 19.0084C0.567781 18.7896 0.86838 18.6667 1.18182 18.6667H24.8182C25.1316 18.6667 25.4322 18.7896 25.6539 19.0084C25.8755 19.2272 26 19.5239 26 19.8333C26 20.1428 25.8755 20.4395 25.6539 20.6583C25.4322 20.8771 25.1316 21 24.8182 21H1.18182C0.86838 21 0.567781 20.8771 0.346147 20.6583C0.124513 20.4395 0 20.1428 0 19.8333ZM0 10.5C0 10.1906 0.124513 9.89383 0.346147 9.67504C0.567781 9.45625 0.86838 9.33333 1.18182 9.33333H24.8182C25.1316 9.33333 25.4322 9.45625 25.6539 9.67504C25.8755 9.89383 26 10.1906 26 10.5C26 10.8094 25.8755 11.1062 25.6539 11.325C25.4322 11.5438 25.1316 11.6667 24.8182 11.6667H1.18182C0.86838 11.6667 0.567781 11.5438 0.346147 11.325C0.124513 11.1062 0 10.8094 0 10.5ZM0 1.16667C0 0.857247 0.124513 0.560501 0.346147 0.341709C0.567781 0.122917 0.86838 0 1.18182 0H24.8182C25.1316 0 25.4322 0.122917 25.6539 0.341709C25.8755 0.560501 26 0.857247 26 1.16667C26 1.47609 25.8755 1.77283 25.6539 1.99162C25.4322 2.21042 25.1316 2.33333 24.8182 2.33333H1.18182C0.86838 2.33333 0.567781 2.21042 0.346147 1.99162C0.124513 1.77283 0 1.47609 0 1.16667Z" fill="black"/>
</svg>
